<svg xmlns="http://www.w3.org/2000/svg" viewBox="0 0 512 512" role="img" aria-labelledby="title desc">
  <title id="title">Relic OS mark</title>
  <desc id="desc">A cyan pixel halo and sword mark on a black background.</desc>
  <rect width="512" height="512" fill="#000000"/>
  <g fill="#20f7f7">
    <rect x="246" y="150" width="20" height="182"/>
    <rect x="236" y="332" width="40" height="22"/>
    <rect x="224" y="354" width="64" height="18"/>
    <rect x="248" y="116" width="16" height="34"/>
    <rect x="232" y="130" width="48" height="14"/>
    <rect x="242" y="96" width="28" height="24"/>
    <rect x="252" y="64" width="8" height="32"/>
    <rect x="180" y="246" width="152" height="8"/>
    <rect x="168" y="254" width="24" height="8"/>
    <rect x="320" y="254" width="24" height="8"/>
    <rect x="200" y="220" width="16" height="16"/>
    <rect x="296" y="220" width="16" height="16"/>
    <rect x="192" y="286" width="18" height="18"/>
    <rect x="302" y="286" width="18" height="18"/>
  </g>
  <g fill="#11d7d7" opacity="0.92">
    <rect x="154" y="116" width="14" height="14"/>
    <rect x="138" y="132" width="14" height="14"/>
    <rect x="122" y="154" width="14" height="14"/>
    <rect x="108" y="182" width="14" height="14"/>
    <rect x="98" y="214" width="14" height="14"/>
    <rect x="94" y="248" width="14" height="14"/>
    <rect x="98" y="282" width="14" height="14"/>
    <rect x="110" y="316" width="14" height="14"/>
    <rect x="130" y="346" width="14" height="14"/>
    <rect x="154" y="370" width="14" height="14"/>
    <rect x="184" y="388" width="14" height="14"/>
    <rect x="218" y="398" width="14" height="14"/>
    <rect x="280" y="398" width="14" height="14"/>
    <rect x="314" y="388" width="14" height="14"/>
    <rect x="344" y="370" width="14" height="14"/>
    <rect x="368" y="346" width="14" height="14"/>
    <rect x="388" y="316" width="14" height="14"/>
    <rect x="400" y="282" width="14" height="14"/>
    <rect x="404" y="248" width="14" height="14"/>
    <rect x="400" y="214" width="14" height="14"/>
    <rect x="390" y="182" width="14" height="14"/>
    <rect x="376" y="154" width="14" height="14"/>
    <rect x="360" y="132" width="14" height="14"/>
    <rect x="344" y="116" width="14" height="14"/>
  </g>
  <g fill="#20f7f7" opacity="0.55">
    <rect x="70" y="70" width="8" height="8"/>
    <rect x="88" y="92" width="8" height="8"/>
    <rect x="418" y="80" width="8" height="8"/>
    <rect x="438" y="106" width="8" height="8"/>
    <rect x="64" y="400" width="8" height="8"/>
    <rect x="92" y="426" width="8" height="8"/>
    <rect x="420" y="404" width="8" height="8"/>
    <rect x="446" y="430" width="8" height="8"/>
    <rect x="116" y="74" width="42" height="6"/>
    <rect x="352" y="88" width="54" height="6"/>
    <rect x="78" y="356" width="58" height="6"/>
    <rect x="374" y="350" width="62" height="6"/>
  </g>
</svg>
